<svg id="Layer_1" enable-background="new 0 0 512 512" height="512" viewBox="0 0 512 512" width="512" xmlns="http://www.w3.org/2000/svg"><g><g clip-rule="evenodd" fill-rule="evenodd"><g fill="#ffc144"><path d="m314.089 132.798c7.81 7.811 20.474 7.811 28.284 0s7.81-20.474 0-28.284c-7.811-7.811-20.474-7.811-28.284 0-7.811 7.811-7.811 20.474 0 28.284z"/><path d="m363.589 171.264c-7.81 7.811-7.81 20.474 0 28.284 7.81 7.811 20.474 7.811 28.284 0s7.81-20.473 0-28.284c-7.811-7.81-20.474-7.81-28.284 0z"/><path d="m416.302 288.403c-7.811-7.811-20.474-7.811-28.284 0-7.811 7.81-7.811 20.474 0 28.284 7.811 7.811 20.474 7.811 28.284 0 7.811-7.81 7.811-20.474 0-28.284z"/><path d="m341.299 353.738c7.81-7.81 7.81-20.474 0-28.284-7.811-7.81-20.474-7.81-28.284 0-7.811 7.81-7.811 20.474 0 28.284 7.81 7.811 20.473 7.811 28.284 0z"/><path d="m330.144 410.841c-7.811-7.811-20.474-7.811-28.284 0-7.81 7.81-7.81 20.474 0 28.284 7.811 7.81 20.474 7.81 28.284 0 7.81-7.811 7.81-20.474 0-28.284z"/></g><path d="m301.859 410.841c7.811-7.811 20.474-7.811 28.284 0 7.81 7.81 7.81 20.474 0 28.284-7.811 7.81-20.474 7.81-28.284 0-7.81-7.811-7.81-20.474 0-28.284zm-45.859-356.041v388.6c0 32.364 26.236 58.6 58.6 58.6 28.42 0 52.112-20.232 57.465-47.079 31.946-5.194 56.335-32.907 56.335-66.321 0-4.262-.402-8.431-1.16-12.472 28.589-11.569 48.76-39.591 48.76-72.329 0-30.816-17.872-57.454-43.815-70.125 13.871-12.31 22.615-30.27 22.615-50.274 0-26.997-15.922-50.27-38.885-60.956 1.867-5.336 2.885-11.071 2.885-17.044 0-28.498-23.102-51.6-51.6-51.6-7.713 0-15.029 1.695-21.6 4.729v-3.729c0-24.64-20.16-44.8-44.8-44.8s-44.8 20.16-44.8 44.8zm85.299 270.654c7.81 7.81 7.81 20.474 0 28.284-7.811 7.811-20.474 7.811-28.284 0-7.811-7.81-7.811-20.474 0-28.284 7.81-7.81 20.473-7.81 28.284 0zm22.29-125.906c-7.81-7.811-7.81-20.473 0-28.284s20.474-7.811 28.284 0 7.81 20.474 0 28.284c-7.811 7.811-20.474 7.811-28.284 0zm-21.216-66.75c-7.811 7.811-20.474 7.811-28.284 0s-7.81-20.474 0-28.284c7.81-7.811 20.474-7.811 28.284 0s7.81 20.474 0 28.284zm73.929 183.889c-7.811 7.811-20.474 7.811-28.284 0-7.811-7.81-7.811-20.474 0-28.284 7.811-7.811 20.474-7.811 28.284 0 7.811 7.81 7.811 20.474 0 28.284z" fill="#fff"/><path d="m256 443.4v-388.6c0-24.64-20.16-44.8-44.8-44.8s-44.8 20.16-44.8 44.8v3.728c-6.571-3.033-13.887-4.729-21.6-4.729-28.498 0-51.6 23.102-51.6 51.6 0 5.973 1.019 11.708 2.885 17.044-22.963 10.687-38.885 33.96-38.885 60.957 0 20.004 8.744 37.964 22.615 50.274-25.942 12.671-43.815 39.309-43.815 70.125 0 32.738 20.171 60.759 48.76 72.329-.758 4.042-1.16 8.21-1.16 12.472 0 33.414 24.389 61.127 56.335 66.321 5.353 26.846 29.045 47.079 57.465 47.079 32.364 0 58.6-26.236 58.6-58.6z" fill="#ff9c9b"/></g><g><path d="m486 303.799c0-29.416-14.255-56.127-37.938-72.41 10.751-13.554 16.738-30.454 16.738-47.988 0-27.058-14.346-52.13-37.169-66.014.777-3.931 1.169-7.938 1.169-11.987 0-33.966-27.633-61.6-61.6-61.6-4.234 0-8.398.421-12.467 1.259-4.609-25.587-27.039-45.059-53.933-45.059-18.491 0-34.871 9.204-44.8 23.272-9.929-14.068-26.309-23.272-44.8-23.272-26.895 0-49.327 19.477-53.934 45.065-1.743-.358-3.504-.643-5.28-.849-5.489-.639-10.451 3.29-11.09 8.776-.639 5.485 3.291 10.45 8.776 11.089 4.305.502 8.482 1.671 12.417 3.473.042.02.08.044.122.064 7.854 3.62 14.292 9.491 18.615 16.98 1.853 3.208 5.214 5.002 8.67 5.002 1.696 0 3.416-.433 4.991-1.342 4.783-2.761 6.422-8.877 3.661-13.66-5.284-9.151-12.702-16.666-21.669-22.027 1.153-18.152 16.281-32.571 34.721-32.571 19.189 0 34.8 15.611 34.8 34.8v204.135c-16.822-2.164-32.377-9.753-44.567-21.943-3.905-3.903-10.237-3.904-14.142 0-3.906 3.905-3.906 10.237 0 14.143 15.975 15.975 36.533 25.699 58.709 27.951v164.314c0 26.798-21.802 48.6-48.6 48.6-18.48 0-34.993-10.508-43.174-26.286 5.592-.249 11.146-1.095 16.555-2.545 5.334-1.43 8.5-6.914 7.07-12.248-1.431-5.335-6.914-8.503-12.249-7.07-7.809 2.093-16.086 2.503-24.049 1.197-.026-.004-.051-.005-.077-.009-27.481-4.499-47.48-27.819-47.859-55.637 6.652 1.586 13.468 2.398 20.382 2.398 7.684 0 15.347-1.009 22.775-2.999 5.335-1.429 8.501-6.912 7.072-12.246-1.429-5.335-6.91-8.503-12.247-7.072-5.742 1.537-11.663 2.317-17.601 2.317-8.775 0-17.35-1.668-25.487-4.957-.067-.027-.136-.045-.203-.07-25.706-10.499-42.308-35.191-42.308-62.974 0-26.136 14.567-49.509 38.028-61.05.058-.027.117-.045.175-.073 3.904-1.903 8.007-3.438 12.196-4.56 5.335-1.429 8.501-6.911 7.073-12.246s-6.914-8.504-12.247-7.072c-3.108.833-6.173 1.859-9.18 3.031-9.496-10.473-14.845-24.168-14.845-38.429 0-18.795 9.347-36.296 24.451-46.889 5.367 9.165 13.04 16.861 22.35 22.235 1.575.909 3.294 1.342 4.991 1.342 3.456 0 6.817-1.794 8.669-5.002 2.762-4.783 1.123-10.898-3.66-13.66-8.621-4.978-15.179-12.893-18.466-22.288-.014-.041-.034-.078-.048-.119-.98-2.83-1.656-5.771-2.003-8.745-.64-5.485-5.608-9.407-11.091-8.773-5.486.64-9.414 5.605-8.774 11.092.188 1.605.439 3.206.753 4.793-22.824 13.884-37.172 38.957-37.172 66.014 0 17.534 5.986 34.435 16.738 47.988-23.683 16.284-37.938 42.995-37.938 72.411 0 33.411 18.548 63.37 47.87 78.341-.18 2.15-.27 4.309-.27 6.461 0 18.437 6.605 36.284 18.6 50.257 10.396 12.109 24.264 20.68 39.575 24.57 8.691 28.51 35.289 48.572 65.625 48.572 24.787 0 46.544-13.213 58.6-32.966 12.056 19.753 33.814 32.966 58.6 32.966 30.337 0 56.935-20.062 65.625-48.572 15.311-3.891 29.179-12.461 39.575-24.57 11.995-13.973 18.6-31.82 18.6-50.257 0-2.152-.09-4.311-.27-6.461 29.321-14.971 47.87-44.93 47.87-78.341zm-62.512 63.059c-4.413 1.785-6.955 6.435-6.077 11.113.656 3.497.989 7.073.989 10.629 0 28.193-20.162 51.934-47.939 56.45-4.118.669-7.387 3.824-8.203 7.915-4.51 22.619-24.553 39.035-47.658 39.035-26.798 0-48.6-21.802-48.6-48.6v-41.368h12.909l10.024 10.025c-5.311 11.149-3.363 24.921 5.855 34.139 5.849 5.849 13.531 8.772 21.213 8.772s15.365-2.924 21.213-8.772c11.697-11.697 11.697-30.729 0-42.427-9.218-9.218-22.99-11.166-34.139-5.855l-12.953-12.954c-1.875-1.875-4.419-2.929-7.071-2.929h-17.051v-32.436h32.876c1.442 4.097 3.796 7.942 7.067 11.213 5.849 5.849 13.531 8.772 21.213 8.772s15.365-2.925 21.213-8.772c11.696-11.697 11.696-30.729 0-42.427-11.697-11.696-30.73-11.696-42.427 0-3.271 3.271-5.626 7.116-7.067 11.214h-32.875v-50.002h99.068l10.011 10.012c-1.909 3.989-2.919 8.385-2.919 12.938 0 8.014 3.121 15.548 8.787 21.214 5.849 5.848 13.531 8.771 21.213 8.771s15.365-2.924 21.214-8.771c5.666-5.667 8.786-13.2 8.786-21.214s-3.12-15.547-8.786-21.213c-9.218-9.218-22.99-11.165-34.139-5.855l-12.953-12.954c-1.875-1.875-4.419-2.929-7.071-2.929h-103.211v-31.238h78.781c2.652 0 5.196-1.054 7.071-2.929l12.94-12.94c3.989 1.909 8.386 2.92 12.939 2.92 8.014 0 15.547-3.121 21.213-8.787s8.787-13.2 8.787-21.214-3.121-15.547-8.787-21.213-13.2-8.787-21.213-8.787-15.547 3.121-21.213 8.787c-5.667 5.666-8.787 13.199-8.787 21.213 0 4.553 1.01 8.95 2.919 12.939l-10.011 10.012h-74.639v-46.75h29.281c2.652 0 5.196-1.054 7.071-2.929l12.94-12.941c3.989 1.909 8.385 2.919 12.938 2.919 8.014 0 15.547-3.121 21.213-8.787 5.667-5.666 8.787-13.199 8.787-21.213s-3.121-15.548-8.787-21.214-13.2-8.787-21.213-8.787-15.547 3.121-21.213 8.787-8.787 13.2-8.787 21.214c0 4.553 1.01 8.95 2.919 12.938l-10.011 10.012h-25.138v-86.804c0-19.188 15.611-34.8 34.8-34.8s34.8 15.611 34.8 34.8v3.729c0 3.41 1.738 6.586 4.611 8.424 2.871 1.838 6.483 2.084 9.58.655 5.474-2.526 11.332-3.808 17.409-3.808 22.938 0 41.6 18.661 41.6 41.6 0 4.71-.782 9.334-2.324 13.743-1.697 4.852.56 10.2 5.22 12.368 20.11 9.357 33.104 29.726 33.104 51.89 0 16.338-7.018 31.936-19.253 42.794-2.495 2.215-3.722 5.527-3.271 8.833.452 3.306 2.522 6.168 5.52 7.632 23.565 11.51 38.204 34.938 38.204 61.14 0 27.855-16.687 52.607-42.512 63.058zm-107.487 48.129c2.561 0 5.122.976 7.071 2.925 3.899 3.898 3.899 10.243 0 14.142-3.898 3.898-10.243 3.898-14.142 0s-3.899-10.243 0-14.142c1.95-1.949 4.511-2.925 7.071-2.925zm4.084-82.462c3.9-3.9 10.244-3.898 14.143 0s3.899 10.243 0 14.142c-3.898 3.899-10.244 3.898-14.142 0-3.899-3.898-3.899-10.243-.001-14.142zm75.004-37.05c1.949-1.95 4.51-2.925 7.071-2.925s5.122.976 7.072 2.925c1.888 1.889 2.928 4.399 2.928 7.07 0 2.672-1.04 5.183-2.928 7.071-3.898 3.897-10.243 3.899-14.143 0-1.889-1.889-2.929-4.399-2.929-7.071 0-2.671 1.04-5.182 2.929-7.07zm-24.429-102.997c-1.889-1.889-2.929-4.399-2.929-7.071 0-2.671 1.04-5.182 2.929-7.07 1.889-1.889 4.4-2.929 7.071-2.929s5.182 1.04 7.071 2.929 2.929 4.399 2.929 7.07c0 2.672-1.04 5.183-2.929 7.071-1.889 1.889-4.399 2.929-7.071 2.929-2.671-.001-5.182-1.041-7.071-2.929zm-49.5-66.751c-.001 0-.001 0 0 0-1.889-1.889-2.929-4.399-2.929-7.07 0-2.672 1.04-5.183 2.929-7.071 1.889-1.889 4.4-2.929 7.071-2.929s5.182 1.04 7.071 2.929 2.929 4.399 2.929 7.071c0 2.671-1.04 5.182-2.929 7.07-1.889 1.889-4.399 2.929-7.071 2.929-2.671-.001-5.182-1.041-7.071-2.929z"/><path d="m137.596 225.796c0 13.959-9.417 26.23-22.899 29.844-5.334 1.43-8.5 6.913-7.071 12.248 1.197 4.468 5.237 7.414 9.653 7.414.856 0 1.728-.111 2.595-.344 22.21-5.952 37.723-26.168 37.723-49.162 0-8.922-2.358-17.722-6.819-25.448-2.762-4.783-8.877-6.423-13.66-3.66-4.783 2.762-6.422 8.877-3.66 13.66 2.706 4.69 4.138 10.032 4.138 15.448z"/><path d="m189.197 396.082c.868.232 1.739.344 2.596.344 4.414 0 8.455-2.946 9.652-7.413 1.151-4.293 1.735-8.726 1.735-13.174 0-28.064-22.832-50.896-50.896-50.896-5.523 0-10 4.478-10 10s4.477 10 10 10c17.036 0 30.896 13.86 30.896 30.896 0 2.7-.354 5.39-1.053 7.994-1.429 5.335 1.736 10.818 7.07 12.249z"/><path d="m227.46 132.467c3.905-3.906 3.905-10.237 0-14.143-3.905-3.904-10.237-3.904-14.142 0-5.835 5.836-13.594 9.05-21.847 9.05s-16.011-3.214-21.847-9.05c-3.904-3.903-10.237-3.903-14.142 0-3.905 3.905-3.906 10.236 0 14.143 9.613 9.613 22.394 14.907 35.989 14.907s26.376-5.294 35.989-14.907z"/><path d="m108.314 78.913c5.523 0 10-4.478 10-10s-4.477-10-10-10h-.007c-5.523 0-9.996 4.478-9.996 10s4.48 10 10.003 10z"/></g></g></svg>